HIERARCHY
ROOT Hips
{
  OFFSET 1.26276 72.9883 1.34753
  CHANNELS 6 Xposition Yposition Zposition Zrotation Xrotation Yrotation
  JOINT Spine
  {
    OFFSET -0.000355721 21.3001 -0.016921
    CHANNELS 3 Zrotation Xrotation Yrotation
    JOINT LeftArm
    {
      OFFSET 13.5181 21.3012 0
      CHANNELS 3 Zrotation Xrotation Yrotation
      JOINT LeftForeArm
      {
        OFFSET 24.5783 0 0
        CHANNELS 3 Zrotation Xrotation Yrotation
        JOINT LeftHand
        {
          OFFSET 24.5783 0 0
          CHANNELS 3 Zrotation Xrotation Yrotation
          End Site
          {
            OFFSET 7.32568 1.52588e-05 0.0169305
          }
        }
      }
    }
    JOINT Head
    {
      OFFSET 0 27.4458 -0.00489235
      CHANNELS 3 Zrotation Xrotation Yrotation
      End Site
      {
        OFFSET 0 0 0
      }
    }
    JOINT RightArm
    {
      OFFSET -13.5174 21.3012 0
      CHANNELS 3 Zrotation Xrotation Yrotation
      JOINT RightForeArm
      {
        OFFSET -24.5783 0 0
        CHANNELS 3 Zrotation Xrotation Yrotation
        JOINT RightHand
        {
          OFFSET -24.5783 0 0
          CHANNELS 3 Zrotation Xrotation Yrotation
          End Site
          {
            OFFSET -7.32568 1.52588e-05 0.0169305
          }
        }
      }
    }
  }
  JOINT RightUpLeg
  {
    OFFSET -8.44614 -9.41038 0.835684
    CHANNELS 3 Zrotation Xrotation Yrotation
    JOINT RightLeg
    {
      OFFSET 0 -40.9639 0
      CHANNELS 3 Zrotation Xrotation Yrotation
      JOINT RightFoot
      {
        OFFSET 0 -40.9639 0
        CHANNELS 3 Zrotation Xrotation Yrotation
        End Site
        {
          OFFSET 0.50614 -9.67405 14.6709
        }
      }
    }
  }
  JOINT LeftUpLeg
  {
    OFFSET 8.44614 -9.41038 0.835684
    CHANNELS 3 Zrotation Xrotation Yrotation
    JOINT LeftLeg
    {
      OFFSET 0 -40.9639 0
      CHANNELS 3 Zrotation Xrotation Yrotation
      JOINT LeftFoot
      {
        OFFSET 0 -40.9639 0
        CHANNELS 3 Zrotation Xrotation Yrotation
        End Site
        {
          OFFSET -0.50614 -9.67405 14.6709
        }
      }
    }
  }
}
MOTION
Frames:	21
Frame Time:	0.0333333
-99.2021 90.8708 102.858 76.9541 -62.9934 -35.0373 -2.56917 2.80122 3.18235 -65.136 -26.3802 39.9806 -1.19801e-05 1.26325e-05 -0.0063105 -13.4088 51.2098 5.99227 -55.0408 6.04467 38.3687 -38.8129 34.451 141.915 -0.000796538 -3.1388e-05 59.0519 -19.363 41.9245 33.9059 -100.651 -36.2027 -75.2412 -5.06044 38.3847 8.22477 -19.9706 -47.2103 -28.0409 55.2316 -8.79524 35.6909 2.26982 23.2818 -9.87038 -2.23584 5.99593 25.8241 
-99.4915 90.7253 103.961 76.4179 -65.1618 -36.9058 -1.96846 3.45517 2.74763 -64.8876 -25.7349 46.9283 -1.19815e-05 1.26325e-05 3.10344e-05 -27.2159 45.243 16.3039 -55.7592 9.29893 40.5716 -41.2 41.61 140.53 -0.000797617 -3.31211e-05 57.1353 -21.9999 36.8652 36.7116 -101.938 -37.0136 -74.8016 -5.16661 39.0782 8.92941 -18.6619 -47.4581 -26.9418 56.2977 -10.9077 34.1196 1.92589 43.4448 -6.81746 -7.61051 -1.02198 28.3349 
-99.4892 90.5772 105.002 74.4043 -67.6641 -40.3045 -1.26869 3.95248 2.09036 -62.7408 -24.6206 52.1907 -1.19769e-05 1.26325e-05 -0.0208594 -34.8341 40.345 24.6283 -56.2469 12.925 41.867 -40.6587 44.2678 135.15 -0.000799223 -3.54848e-05 54.4521 -23.4973 32.5092 38.4854 -102.836 -38.2563 -74.1263 -5.29066 39.8302 9.75788 -17.557 -47.6207 -25.8261 55.0759 -11.2507 31.8491 -1.17424 62.1763 -1.46873 -4.5996 -3.74896 26.7282 
-99.3796 90.3972 105.814 70.2923 -70.2627 -45.7969 -0.785964 4.11392 1.45667 -59.7254 -23.238 53.3687 -1.19762e-05 1.26325e-05 -0.0240164 -37.3654 42.4319 31.6449 -55.5343 15.9624 41.0514 -38.5591 43.1905 128.17 -0.000800389 -3.70621e-05 52.6108 -26.3503 28.1585 39.5018 -103.118 -39.8824 -73.0821 -5.45239 40.8205 10.7182 -16.8315 -47.9278 -24.9157 51.7467 -9.41921 30.2829 -14.166 77.1108 14.5221 1.22003 -5.26809 24.3933 
-99.4286 90.2385 106.391 63.5472 -72.6276 -53.8944 -0.614089 4.08749 1.10887 -57.4189 -21.9122 50.6 -1.19814e-05 1.26325e-05 -6.25179e-05 -29.3872 48.7423 30.6212 -53.8156 17.5972 38.9152 -34.5072 41.501 121.908 -0.000801518 -3.84946e-05 50.8986 -29.5556 24.6809 40.1575 -102.567 -41.6427 -71.4674 -5.61932 41.8933 11.8051 -16.4804 -48.4269 -24.3949 47.3243 -6.03396 30.4596 -74.5159 84.2723 76.6347 4.70412 -6.55912 20.7073 
-99.7246 90.122 106.829 54.104 -74.2787 -64.52 -0.622085 4.06238 1.08635 -56.6185 -20.6465 46.0971 -1.19814e-05 1.26325e-05 -5.90925e-05 -2.17073 48.7204 12.1753 -51.932 17.958 37.0337 -27.7123 40.9564 117.49 -0.000803388 -4.0687e-05 48.1936 -31.1619 23.8584 41.2478 -101.178 -43.2475 -69.2499 -5.78406 42.9932 12.7907 -16.3286 -49.1202 -24.2339 42.5903 -3.33724 32.2872 -134.793 80.5314 136.178 3.07134 -8.48701 14.4247 
-100.155 89.9872 107.165 43.3032 -74.6585 -76.0312 -0.685439 4.08295 1.27379 -56.767 -19.4016 41.7296 -1.19347e-05 1.26324e-05 -0.212088 22.7829 32.154 -7.21391 -50.4401 17.8084 36.0931 -19.2117 41.7473 114.734 -0.000805761 -4.31939e-05 44.9528 -30.9648 25.5713 43.0025 -98.9862 -44.5218 -66.432 -5.99705 44.4137 13.3937 -16.4337 -50.0896 -24.6008 37.5756 -2.72185 35.0939 -152.355 75.6332 151.268 -3.10442 -10.3095 7.99566 
-100.511 89.9679 107.325 33.1013 -73.1449 -85.9105 -0.715421 4.10165 1.48852 -57.075 -18.628 37.7662 -1.18874e-05 1.26321e-05 -0.42662 29.6991 11.7247 -14.3491 -49.5887 17.474 35.9019 -10.5433 43.0589 112.57 -0.000807633 -4.49856e-05 42.5198 -30.1436 27.3645 44.4845 -94.8009 -45.1984 -62.1545 -6.22346 45.9539 13.4623 -17.2385 -51.1234 -26.0989 33.776 -3.79275 37.1991 -159.656 72.4768 156.714 -7.79119 -10.7832 3.63031 
-100.679 90.0528 107.154 24.926 -69.3955 -92.4368 -0.689224 4.05152 1.64024 -57.6434 -18.9202 34.0221 -1.19414e-05 1.26324e-05 -0.181775 28.5906 0.659687 -12.2343 -49.439 16.64 36.1882 -3.15007 42.9147 110.661 -0.000808664 -4.59097e-05 41.22 -29.2875 27.3842 44.6125 -87.5385 -45.1128 -55.8102 -6.57302 47.747 12.9307 -19.07 -52.2973 -29.0532 33.3454 -5.57272 36.9467 -163.113 70.9539 159.298 -9.21229 -10.9699 1.01396 
-100.773 90.1232 106.636 19.6401 -64.2107 -95.1473 -0.698315 3.87652 1.80428 -58.9518 -20.5141 31.2634 -1.19377e-05 1.26324e-05 -0.198307 24.5826 -2.38522 -3.5069 -49.7228 15.2558 36.7004 1.46106 39.3903 109.23 -0.000809258 -4.64229e-05 40.4834 -28.3426 25.6897 43.2267 -78.1949 -44.087 -48.3564 -7.04578 49.5377 11.3023 -21.1576 -53.7067 -32.5371 35.3354 -8.04961 34.9954 -165.169 70.4171 160.082 -10.4396 -12.3586 -1.7276 
-100.961 90.1827 105.863 16.5475 -58.7041 -94.7351 -0.736362 3.57135 2.10695 -60.7674 -23.4667 30.5809 -1.13452e-05 1.26164e-05 -2.88704 17.5702 -3.64478 5.34439 -49.9245 14.3002 36.988 2.99526 32.4765 106.614 -0.000809309 -4.64663e-05 40.4208 -27.0379 23.3749 40.3967 -68.4843 -41.6961 -41.0948 -7.30617 50.8064 8.11415 -22.6429 -55.1144 -35.6673 37.4285 -11.6403 32.7291 -166.634 70.6002 160.064 -10.521 -15.9735 -5.14651 
-101.249 90.4063 104.799 14.061 -53.0304 -92.008 -0.660906 3.19432 2.64056 -62.1342 -27.5004 31.8343 -9.71734e-06 1.24279e-05 -10.3249 9.2377 -3.833 9.3815 -49.2988 15.4147 36.402 2.55512 24.5587 99.6089 -0.00080863 -4.58794e-05 41.2632 -24.9509 21.1487 36.4832 -59.0416 -37.0613 -35.0917 -7.08922 51.1381 4.14176 -23.8444 -56.0041 -38.6305 38.9047 -16.75 30.4987 -167.493 71.1242 159.337 -6.67713 -22.4369 -6.90139 
-101.677 90.8868 103.422 11.5765 -46.8919 -87.1622 -0.497884 2.85776 3.37268 -62.2979 -31.03 33.4646 -7.26961e-06 1.17208e-05 -21.9004 2.26213 -0.172289 9.51438 -46.9248 19.5691 34.2054 2.06455 18.7129 86.529 -0.000808795 -4.60239e-05 41.0571 -21.5901 18.9913 32.8311 -48.9815 -29.9314 -30.9593 -7.23534 49.3298 1.63564 -26.5019 -56.092 -42.9173 39.8536 -23.8084 28.4228 -168.01 71.7846 158.21 -2.58883 -29.2497 -6.60908 
-102.258 91.5529 101.74 8.92889 -40.1545 -80.3916 -0.52644 2.72694 4.01368 -61.3995 -31.621 33.4857 -4.78782e-06 1.03842e-05 -34.7123 -1.18362 6.60582 8.94697 -42.2718 25.8145 29.7555 3.99375 15.927 68.636 -0.000812824 -4.92442e-05 36.2139 -16.9653 17.7287 30.1571 -36.8306 -21.5935 -28.025 -9.32398 44.74 0.255604 -29.6293 -54.1124 -47.7973 39.9746 -32.123 26.2372 -168.712 72.7465 158.852 -3.88028 -32.4207 -7.95451 
-102.857 91.8887 99.6754 6.01332 -33.7476 -72.1544 -1.23318 2.94678 4.15861 -60.0149 -28.4114 30.5381 -2.88162e-06 8.76198e-06 -46.0836 -1.6439 12.5998 8.88846 -35.7748 31.4847 23.2789 9.33917 13.8987 48.9648 -0.000822518 -5.50468e-05 25.5927 -12.5837 19.6409 27.2472 -23.8327 -15.2224 -24.3756 -12.3371 40.4486 -2.04005 -27.5338 -49.1661 -47.437 38.2342 -40.0439 23.0636 -169.468 73.6859 161.932 -7.91237 -32.0024 -10.4108 
-103.488 91.4174 97.2697 3.93474 -28.6886 -62.8572 -2.6027 3.49071 3.59935 -58.3417 -22.9442 24.3545 -1.63253e-06 7.24423e-06 -55.008 -0.937032 15.3662 9.14837 -28.9904 34.3921 16.5173 15.3246 9.9791 30.6461 -0.000835291 -5.95024e-05 12.8677 -10.4171 25.794 23.3296 -11.3405 -13.8781 -15.8068 -14.4451 40.7086 -0.23933 -23.7853 -41.7485 -39.5572 33.9811 -46.5351 18.9606 -169.57 73.9785 166.259 -9.75204 -31.8049 -11.1634 
-104.259 90.4333 94.7558 2.8316 -23.9864 -53.4802 -3.51738 4.12902 2.37012 -56.2424 -17.1742 15.0714 -8.8166e-07 6.03107e-06 -61.4826 -0.0776197 15.7721 9.69053 -23.3645 34.5574 11.1256 18.9813 5.30898 14.568 -0.000845095 -6.09174e-05 3.55899 -10.8068 33.0384 19.6724 0.909776 -12.9854 -2.82505 -14.4265 38.4653 9.25316 -23.6202 -36.2254 -28.9125 29.0175 -50.6952 15.0121 -168.528 73.4699 169.88 -9.48528 -32.1419 -9.82732 
-105.275 89.1817 92.4553 2.07991 -18.7028 -44.4323 -3.36165 4.58851 0.653866 -53.355 -11.9754 2.64202 -4.7848e-07 5.22119e-06 -65.5868 0.630631 16.3289 10.4186 -18.9368 33.1258 6.94452 20.9569 1.62782 -1.33226 -0.000848846 -6.10351e-05 0.0348519 -12.6499 35.6797 17.2972 11.244 -13.4092 8.6262 -13.5196 35.1186 15.5299 -21.7829 -32.6956 -23.4671 25.7072 -52.4495 12.2343 -166.764 72.3936 171.389 -7.77434 -30.5361 -8.20396 
-106.469 87.7269 90.3793 2.03947 -12.8482 -35.2918 -2.46591 4.77002 -1.37367 -49.249 -7.96408 -12.6927 -2.97017e-07 4.80137e-06 -67.6613 1.07307 18.3103 10.6848 -15.2667 30.5463 3.23538 23.338 -1.66248 -18.5428 -0.000848884 -6.10352e-05 1.83141e-05 -14.1567 30.6947 15.326 18.6973 -17.9091 15.9072 -12.7711 34.5826 11.8344 -22.5605 -28.3742 -27.5917 23.8009 -53.1656 10.5734 -164.879 71.4818 170.383 -6.10384 -27.0475 -7.2466 
-107.449 86.1812 88.4338 2.56266 -6.89091 -26.6615 -1.27564 4.80113 -3.48426 -44.1467 -6.18785 -29.6066 -2.15657e-07 4.59839e-06 -68.6531 1.30512 20.9881 9.70495 -12.5183 26.5022 0.178912 27.469 -5.90654 -35.8648 -0.00084867 -6.10348e-05 0.200372 -14.8786 20.0124 12.8265 23.5969 -25.871 20.0144 -12.5694 36.4234 7.0682 -22.8811 -24.845 -32.6551 22.0693 -53.1678 9.88289 -162.752 71.4052 166.808 -6.36242 -23.4552 -5.67311 
-107.817 84.6564 86.569 3.15149 -1.98022 -20.1001 -0.0901943 4.88773 -5.38571 -39.1847 -6.73135 -45.89 -1.50284e-07 4.42748e-06 -69.483 1.77955 23.0914 7.141 -10.9805 21.1779 -1.75145 33.1414 -12.1725 -49.9108 -0.000848741 -6.1035e-05 0.134242 -15.6059 8.28811 9.78038 26.4931 -34.0177 22.6051 -12.8721 38.8346 4.12207 -22.227 -23.507 -33.461 20.1942 -50.6776 10.5188 -159.296 72.1888 160.535 -6.89402 -20.5726 -3.32471 
